<?xml version="1.0" standalone="no"?>
<!DOCTYPE svg PUBLIC "-//W3C//DTD SVG 20010904//EN"
 "http://www.w3.org/TR/2001/REC-SVG-20010904/DTD/svg10.dtd">
<svg version="1.0" xmlns="http://www.w3.org/2000/svg"
 width="348.000000pt" height="186.000000pt" viewBox="0 0 348.000000 186.000000"
 preserveAspectRatio="xMidYMid meet">

<g transform="translate(0.000000,186.000000) scale(0.100000,-0.100000)"
fill="#000000" stroke="none">
<path d="M397 1513 l-138 -178 443 -6 c483 -6 494 -7 556 -64 35 -32 37 -36
37 -99 0 -58 -3 -68 -29 -95 -16 -17 -54 -40 -83 -51 -51 -19 -78 -20 -493
-20 l-440 0 0 -354 0 -353 109 -7 c59 -4 156 -4 214 0 l107 7 2 181 3 181 127
3 127 3 155 -185 c149 -176 158 -185 199 -191 23 -4 152 -3 286 2 l243 8 -215
220 c-119 121 -216 223 -217 228 0 4 7 7 16 7 9 0 49 15 88 34 90 43 165 120
209 213 31 65 32 73 32 193 0 119 -1 128 -31 191 -66 139 -206 235 -410 280
-87 19 -138 22 -429 26 l-330 5 -138 -179z"/>
<path d="M1937 1683 c-4 -3 -7 -318 -7 -698 l0 -692 488 -5 c268 -3 513 -3
544 0 55 4 60 7 92 51 19 25 77 102 130 171 l97 125 -458 5 -458 5 0 95 0 95
300 5 299 5 59 75 c32 41 85 110 118 152 l60 78 -418 2 -418 3 0 85 0 85 321
3 322 2 113 148 c155 201 149 194 149 203 0 10 -1323 12 -1333 2z"/>
</g>
</svg>
